<svg version="1.1" width="2000" height="1500" viewBox="0 0 2000 1500">
    <rect width="2000" height="1500" fill="#001f3f"></rect>
    <g transform="matrix(0.75,0,0,0.75,249.090909090909,482.12834017654495)">
        <svg viewBox="0 0 396 141" data-background-color="#001f3f"
            preserveAspectRatio="xMidYMid meet" height="712" width="2000"
            xmlns="http://www.w3.org/2000/svg" xmlns:xlink="http://www.w3.org/1999/xlink">
            <g transform="matrix(1,0,0,1,0.2400000000000091,0.23015736911452223)">
                <svg viewBox="0 0 395.52 140.53968526177098" height="140.53968526177098"
                    width="395.52">
                    <g>
                        <svg viewBox="0 0 565.6731040198587 200.99999999999997"
                            height="140.53968526177098" width="395.52">
                            <g>
                                <rect width="5.577461416867471" height="200.99999999999997"
                                    x="194.7319060568064" y="0" opacity="1"
                                    strokeWidth="0" stroke="transparent" fill-opacity="1"
                                    data-fill-palette-color="primary" rx="1%"
                                    data-palette-color="#ffffff"></rect>
                            </g>
                            <g transform="matrix(1,0,0,1,214.91005181102327,0.4999999999999858)">
                                <svg viewBox="0 0 350.7630522088354 200" height="200"
                                    width="350.7630522088354">
                                    <g>
                                        <svg viewBox="0 0 350.7630522088354 200" height="200"
                                            width="350.7630522088354">
                                            <g>
                                                <svg viewBox="0 0 350.7630522088354 200"
                                                    height="200" width="350.7630522088354">
                                                    <g transform="matrix(1,0,0,1,0,0)">
                                                        <svg width="350.7630522088354"
                                                            viewBox="0 -38 218.35 121.5"
                                                            height="200"
                                                            data-palette-color="#ffffff">
                                                            <svg></svg>
                                                            <svg></svg>
                                                            <svg></svg>
                                                            <g data-fill-palette-color="primary">
                                                                <path
                                                                    d="M12.2 0h-12.2v-2.1h0.95c0.667 0 1.2-0.1 1.6-0.3 0.4-0.2 0.767-0.583 1.1-1.15 0.333-0.567 0.7-1.383 1.1-2.45v0l11.1-29.7h3.9l11.3 30.95c0.267 0.7 0.55 1.24 0.85 1.62 0.3 0.387 0.667 0.653 1.1 0.8 0.433 0.153 0.967 0.23 1.6 0.23v0h0.65v2.1h-13.75v-2.1h1.15c1 0 1.75-0.193 2.25-0.58 0.5-0.38 0.75-0.987 0.75-1.82v0c0-0.2-0.017-0.393-0.05-0.58-0.033-0.18-0.073-0.38-0.12-0.6-0.053-0.213-0.13-0.437-0.23-0.67v0l-2-5.6h-13.15l-1.9 5.25c-0.1 0.267-0.183 0.533-0.25 0.8-0.067 0.267-0.117 0.507-0.15 0.72-0.033 0.22-0.05 0.43-0.05 0.63v0c0 0.833 0.277 1.45 0.83 1.85 0.547 0.4 1.37 0.6 2.47 0.6v0h1.15zM14.45-23.65l-3.4 9.2h11.3l-3.1-8.75c-0.333-1-0.657-1.95-0.97-2.85-0.32-0.9-0.603-1.767-0.85-2.6-0.253-0.833-0.48-1.65-0.68-2.45v0c-0.167 0.8-0.357 1.573-0.57 2.32-0.22 0.753-0.463 1.537-0.73 2.35-0.267 0.82-0.6 1.747-1 2.78zM50.1 0h-13.45v-2.1h0.65c0.767 0 1.433-0.083 2-0.25 0.567-0.167 1.017-0.51 1.35-1.03 0.333-0.513 0.5-1.287 0.5-2.32v0-15.6c0-1-0.167-1.743-0.5-2.23-0.333-0.48-0.793-0.797-1.38-0.95-0.58-0.147-1.237-0.22-1.97-0.22v0h-0.15v-2.1h7.85l0.65 4.05h0.25c0.667-1.267 1.383-2.227 2.15-2.88 0.767-0.647 1.6-1.087 2.5-1.32 0.9-0.233 1.867-0.35 2.9-0.35v0c1.067 0 2.077 0.15 3.03 0.45 0.947 0.3 1.787 0.773 2.52 1.42 0.733 0.653 1.3 1.547 1.7 2.68v0h0.4c0.667-1.267 1.41-2.227 2.23-2.88 0.813-0.647 1.693-1.087 2.64-1.32 0.953-0.233 1.947-0.35 2.98-0.35v0c2.567 0 4.567 0.773 6 2.32 1.433 1.553 2.15 4.047 2.15 7.48v0 11.8c0 1.033 0.167 1.807 0.5 2.32 0.333 0.52 0.79 0.863 1.37 1.03 0.587 0.167 1.247 0.25 1.98 0.25v0h0.15v2.1h-8.7v-17.25c0-2.167-0.393-3.85-1.18-5.05-0.78-1.2-2.137-1.8-4.07-1.8v0c-1.367 0-2.457 0.34-3.27 1.02-0.82 0.687-1.403 1.597-1.75 2.73-0.353 1.133-0.53 2.367-0.53 3.7v0 10.95c0 1.033 0.167 1.807 0.5 2.32 0.333 0.52 0.793 0.863 1.38 1.03 0.58 0.167 1.237 0.25 1.97 0.25v0h0.15v2.1h-8.7v-17.25c0-2.167-0.39-3.85-1.17-5.05-0.787-1.2-2.147-1.8-4.08-1.8v0c-1.433 0-2.573 0.373-3.42 1.12-0.853 0.753-1.463 1.747-1.83 2.98-0.367 1.233-0.55 2.567-0.55 4v0 10.55c0 0.967 0.19 1.69 0.57 2.17 0.387 0.487 0.887 0.803 1.5 0.95 0.62 0.153 1.297 0.23 2.03 0.23v0h0.15zM97.85 0h-14.2v-2.1h0.65c0.733 0 1.41-0.077 2.03-0.23 0.613-0.147 1.113-0.463 1.5-0.95 0.38-0.48 0.57-1.203 0.57-2.17v0-15.85c0-1-0.19-1.743-0.57-2.23-0.387-0.48-0.887-0.797-1.5-0.95-0.62-0.147-1.297-0.22-2.03-0.22v0h-0.15v-2.1h8.95v21.1c0 1.033 0.183 1.807 0.55 2.32 0.367 0.52 0.867 0.863 1.5 1.03 0.633 0.167 1.317 0.25 2.05 0.25v0h0.65zM90.55-31.8v0c-0.8 0-1.473-0.233-2.02-0.7-0.553-0.467-0.83-1.267-0.83-2.4v0c0-1.167 0.277-1.977 0.83-2.43 0.547-0.447 1.22-0.67 2.02-0.67v0c0.767 0 1.433 0.223 2 0.67 0.567 0.453 0.85 1.263 0.85 2.43v0c0 1.133-0.283 1.933-0.85 2.4-0.567 0.467-1.233 0.7-2 0.7zM114.6 0h-14.45v-2.1h0.15c0.767 0 1.46-0.083 2.08-0.25 0.613-0.167 1.103-0.51 1.47-1.03 0.367-0.513 0.55-1.287 0.55-2.32v0-15.6c0-1-0.19-1.743-0.57-2.23-0.387-0.48-0.887-0.797-1.5-0.95-0.62-0.147-1.297-0.22-2.03-0.22v0h-0.15v-2.1h7.7l0.95 4.95h0.25c0.433-1 0.9-1.917 1.4-2.75 0.5-0.833 1.167-1.493 2-1.98 0.833-0.48 1.983-0.72 3.45-0.72v0c1.833 0 3.19 0.317 4.07 0.95 0.887 0.633 1.33 1.533 1.33 2.7v0c0 1.033-0.36 1.883-1.08 2.55-0.713 0.667-1.903 1-3.57 1v0c0-0.933-0.083-1.683-0.25-2.25-0.167-0.567-0.44-0.983-0.82-1.25-0.387-0.267-0.913-0.4-1.58-0.4v0c-0.933 0-1.717 0.367-2.35 1.1-0.633 0.733-1.133 1.667-1.5 2.8-0.367 1.133-0.633 2.31-0.8 3.53-0.167 1.213-0.25 2.303-0.25 3.27v0 7.85c0 0.967 0.19 1.69 0.57 2.17 0.387 0.487 0.887 0.803 1.5 0.95 0.62 0.153 1.297 0.23 2.03 0.23v0h1.4z"
                                                                    fill-rule="nonzero"
                                                                    stroke="none" strokeWidth="1"
                                                                    stroke-linecap="butt"
                                                                    stroke-linejoin="miter"
                                                                    stroke-miterlimit="10"
                                                                    stroke-dasharray=""
                                                                    stroke-dashoffset="0"
                                                                    font-family="none"
                                                                    font-weight="none"
                                                                    font-size="none"
                                                                    text-anchor="none"
                                                                    style="mix-blend-mode: normal"
                                                                    data-fill-palette-color="primary"
                                                                    opacity="1" />
                                                                <path transform="translate(0,41.5)"
                                                                    d="M16.45 0h-14.55v-2.1h0.65c0.733 0 1.41-0.077 2.03-0.23 0.613-0.147 1.113-0.463 1.5-0.95 0.38-0.48 0.57-1.203 0.57-2.17v0-24.75c0-1-0.19-1.743-0.57-2.23-0.387-0.48-0.887-0.797-1.5-0.95-0.62-0.147-1.297-0.22-2.03-0.22v0h-0.65v-2.1h14.55v2.1h-0.65c-0.733 0-1.417 0.083-2.05 0.25-0.633 0.167-1.133 0.5-1.5 1-0.367 0.5-0.55 1.283-0.55 2.35v0 14.1l10.35-11.85c0.733-0.833 1.293-1.55 1.68-2.15 0.38-0.6 0.653-1.117 0.82-1.55 0.167-0.433 0.25-0.8 0.25-1.1v0c0-0.433-0.2-0.727-0.6-0.88-0.4-0.147-1.017-0.22-1.85-0.22v0-2.05h11.05v2.05c-0.767 0-1.49 0.19-2.17 0.57-0.687 0.387-1.397 0.93-2.13 1.63-0.733 0.7-1.533 1.533-2.4 2.5v0l-7.25 8.15 10.55 14.7c0.633 0.867 1.25 1.6 1.85 2.2 0.6 0.6 1.21 1.05 1.83 1.35 0.613 0.3 1.22 0.45 1.82 0.45v0h0.1v2.1h-0.55c-1.667 0-3.04-0.067-4.12-0.2-1.087-0.133-1.987-0.367-2.7-0.7-0.72-0.333-1.353-0.79-1.9-1.37-0.553-0.587-1.147-1.33-1.78-2.23v0l-8.6-12.35-4.25 4.2v6.95c0 1.033 0.183 1.807 0.55 2.32 0.367 0.52 0.867 0.863 1.5 1.03 0.633 0.167 1.317 0.25 2.05 0.25v0h0.65zM49.35 0h-13.45v-2.1h0.4c0.767 0 1.46-0.083 2.08-0.25 0.613-0.167 1.103-0.51 1.47-1.03 0.367-0.513 0.55-1.287 0.55-2.32v0-26.8c0-1-0.19-1.743-0.57-2.23-0.387-0.48-0.887-0.797-1.5-0.95-0.62-0.147-1.297-0.22-2.03-0.22v0h-0.4v-2.1h9.2v11c0 0.6-0.017 1.223-0.05 1.87-0.033 0.653-0.067 1.213-0.1 1.68-0.033 0.467-0.05 0.7-0.05 0.7v0h0.25c0.5-1 1.11-1.843 1.83-2.53 0.713-0.68 1.527-1.187 2.44-1.52 0.92-0.333 1.947-0.5 3.08-0.5v0c2.867 0 5.06 0.773 6.58 2.32 1.513 1.553 2.27 4.047 2.27 7.48v0 11.8c0 1.033 0.167 1.807 0.5 2.32 0.333 0.52 0.793 0.863 1.38 1.03 0.58 0.167 1.237 0.25 1.97 0.25v0h0.15v2.1h-8.7v-17.25c0-2.167-0.41-3.85-1.23-5.05-0.813-1.2-2.237-1.8-4.27-1.8v0c-1.367 0-2.5 0.333-3.4 1-0.9 0.667-1.567 1.607-2 2.82-0.433 1.22-0.65 2.647-0.65 4.28v0 10.55c0 0.967 0.19 1.69 0.57 2.17 0.387 0.487 0.887 0.803 1.5 0.95 0.62 0.153 1.297 0.23 2.03 0.23v0h0.15zM77 0.5v0c-1.467 0-2.79-0.293-3.97-0.88-1.187-0.58-2.113-1.463-2.78-2.65-0.667-1.18-1-2.67-1-4.47v0c0-2.667 0.943-4.633 2.83-5.9 1.88-1.267 4.737-1.967 8.57-2.1v0l4.15-0.15v-3c0-1.2-0.1-2.26-0.3-3.18-0.2-0.913-0.633-1.637-1.3-2.17-0.667-0.533-1.683-0.8-3.05-0.8v0c-1.267 0-2.233 0.233-2.9 0.7-0.667 0.467-1.11 1.107-1.33 1.92-0.213 0.82-0.32 1.763-0.32 2.83v0c-1.4 0-2.46-0.243-3.18-0.73-0.713-0.48-1.07-1.287-1.07-2.42v0c0-1.167 0.41-2.1 1.23-2.8 0.813-0.7 1.903-1.21 3.27-1.53 1.367-0.313 2.867-0.47 4.5-0.47v0c3.067 0 5.357 0.65 6.87 1.95 1.52 1.3 2.28 3.533 2.28 6.7v0 12.95c0 0.933 0.1 1.657 0.3 2.17 0.2 0.52 0.533 0.887 1 1.1 0.467 0.22 1.067 0.33 1.8 0.33v0h0.15v2.1h-6.75l-0.8-4.3h-0.4c-0.7 0.933-1.383 1.757-2.05 2.47-0.667 0.72-1.443 1.287-2.33 1.7-0.88 0.42-2.02 0.63-3.42 0.63zM78.15-2.6v0c1.367 0 2.54-0.283 3.52-0.85 0.987-0.567 1.753-1.377 2.3-2.43 0.553-1.047 0.83-2.27 0.83-3.67v0-4.05l-3.2 0.15c-1.9 0.067-3.39 0.35-4.47 0.85-1.087 0.5-1.863 1.19-2.33 2.07-0.467 0.887-0.7 1.98-0.7 3.28v0c0 1.033 0.15 1.893 0.45 2.58 0.3 0.68 0.75 1.193 1.35 1.54 0.6 0.353 1.35 0.53 2.25 0.53zM109.75 0h-13.45v-2.1h0.4c0.767 0 1.46-0.083 2.08-0.25 0.613-0.167 1.103-0.51 1.47-1.03 0.367-0.513 0.55-1.287 0.55-2.32v0-15.6c0-1-0.183-1.743-0.55-2.23-0.367-0.48-0.85-0.797-1.45-0.95-0.6-0.147-1.267-0.22-2-0.22v0h-0.25v-2.1h8.1l0.65 4.05h0.25c0.7-1.267 1.443-2.227 2.23-2.88 0.78-0.647 1.637-1.087 2.57-1.32 0.933-0.233 1.933-0.35 3-0.35v0c2.633 0 4.693 0.773 6.18 2.32 1.48 1.553 2.22 4.047 2.22 7.48v0 11.8c0 1.033 0.16 1.807 0.48 2.32 0.313 0.52 0.753 0.863 1.32 1.03 0.567 0.167 1.217 0.25 1.95 0.25v0h0.25v2.1h-8.7v-17.25c0-2.167-0.407-3.85-1.22-5.05-0.82-1.2-2.247-1.8-4.28-1.8v0c-1.5 0-2.69 0.373-3.57 1.12-0.887 0.753-1.52 1.747-1.9 2.98-0.387 1.233-0.58 2.567-0.58 4v0 10.55c0 0.967 0.183 1.69 0.55 2.17 0.367 0.487 0.85 0.803 1.45 0.95 0.6 0.153 1.267 0.23 2 0.23v0h0.25z"
                                                                    fill-rule="nonzero"
                                                                    stroke="none" strokeWidth="1"
                                                                    stroke-linecap="butt"
                                                                    stroke-linejoin="miter"
                                                                    stroke-miterlimit="10"
                                                                    stroke-dasharray=""
                                                                    stroke-dashoffset="0"
                                                                    font-family="none"
                                                                    font-weight="none"
                                                                    font-size="none"
                                                                    text-anchor="none"
                                                                    style="mix-blend-mode: normal"
                                                                    data-fill-palette-color="primary"
                                                                    opacity="1" />
                                                                <path transform="translate(0,83)"
                                                                    d="M12.2 0h-12.2v-2.1h0.95c0.667 0 1.2-0.1 1.6-0.3 0.4-0.2 0.767-0.583 1.1-1.15 0.333-0.567 0.7-1.383 1.1-2.45v0l11.1-29.7h3.9l11.3 30.95c0.267 0.7 0.55 1.24 0.85 1.62 0.3 0.387 0.667 0.653 1.1 0.8 0.433 0.153 0.967 0.23 1.6 0.23v0h0.65v2.1h-13.75v-2.1h1.15c1 0 1.75-0.193 2.25-0.58 0.5-0.38 0.75-0.987 0.75-1.82v0c0-0.2-0.017-0.393-0.05-0.58-0.033-0.18-0.073-0.38-0.12-0.6-0.053-0.213-0.13-0.437-0.23-0.67v0l-2-5.6h-13.15l-1.9 5.25c-0.1 0.267-0.183 0.533-0.25 0.8-0.067 0.267-0.117 0.507-0.15 0.72-0.033 0.22-0.05 0.43-0.05 0.63v0c0 0.833 0.277 1.45 0.83 1.85 0.547 0.4 1.37 0.6 2.47 0.6v0h1.15zM14.45-23.65l-3.4 9.2h11.3l-3.1-8.75c-0.333-1-0.657-1.95-0.97-2.85-0.32-0.9-0.603-1.767-0.85-2.6-0.253-0.833-0.48-1.65-0.68-2.45v0c-0.167 0.8-0.357 1.573-0.57 2.32-0.22 0.753-0.463 1.537-0.73 2.35-0.267 0.82-0.6 1.747-1 2.78zM48.2 0.5v0c-2.2 0-4.057-0.483-5.57-1.45-1.52-0.967-2.673-2.477-3.46-4.53-0.78-2.047-1.17-4.67-1.17-7.87v0c0-3.233 0.39-5.877 1.17-7.93 0.787-2.047 1.94-3.563 3.46-4.55 1.513-0.98 3.37-1.47 5.57-1.47v0c1.933 0 3.507 0.407 4.72 1.22 1.22 0.82 2.197 1.88 2.93 3.18v0h0.3c-0.1-0.833-0.177-1.76-0.23-2.78-0.047-1.013-0.07-1.92-0.07-2.72v0-4.1c0-1-0.19-1.743-0.57-2.23-0.387-0.48-0.887-0.797-1.5-0.95-0.62-0.147-1.297-0.22-2.03-0.22v0h-0.4v-2.1h9.2v32.5c0 0.967 0.193 1.7 0.58 2.2 0.38 0.5 0.88 0.823 1.5 0.97 0.613 0.153 1.287 0.23 2.02 0.23v0h0.4v2.1h-8.45l-0.55-4.5h-0.2c-0.733 1.533-1.7 2.75-2.9 3.65-1.2 0.9-2.783 1.35-4.75 1.35zM49.05-2.7v0c2.6 0 4.383-0.877 5.35-2.63 0.967-1.747 1.45-4.42 1.45-8.02v0c0-3.467-0.483-6.127-1.45-7.98-0.967-1.847-2.767-2.77-5.4-2.77v0c-1.467 0-2.65 0.417-3.55 1.25-0.9 0.833-1.557 2.05-1.97 3.65-0.42 1.6-0.63 3.567-0.63 5.9v0c0 3.533 0.473 6.183 1.42 7.95 0.953 1.767 2.547 2.65 4.78 2.65zM77.9 0l-8.05-22.05c-0.233-0.7-0.507-1.243-0.82-1.63-0.32-0.38-0.703-0.647-1.15-0.8-0.453-0.147-1.03-0.22-1.73-0.22v0-2.1h12.5v2.1h-0.65c-1 0-1.75 0.19-2.25 0.57-0.5 0.387-0.75 0.997-0.75 1.83v0c0 0.267 0.033 0.55 0.1 0.85 0.067 0.3 0.167 0.633 0.3 1v0l3.4 9.45c0.3 0.8 0.6 1.673 0.9 2.62 0.3 0.953 0.577 1.853 0.83 2.7 0.247 0.853 0.453 1.58 0.62 2.18v0c0.167-0.7 0.517-1.717 1.05-3.05 0.533-1.333 1.017-2.6 1.45-3.8v0l3.6-9.75c0.167-0.4 0.283-0.793 0.35-1.18 0.067-0.38 0.1-0.703 0.1-0.97v0c0-0.867-0.273-1.493-0.82-1.88-0.553-0.38-1.38-0.57-2.48-0.57v0h-0.35v-2.1h10.7v2.1h-0.6c-0.633 0-1.157 0.1-1.57 0.3-0.42 0.2-0.797 0.583-1.13 1.15-0.333 0.567-0.7 1.383-1.1 2.45v0l-7.9 20.8zM109.25 0.5v0c-3.6 0-6.433-1.15-8.5-3.45-2.067-2.3-3.1-5.8-3.1-10.5v0c0-4.667 0.993-8.143 2.98-10.43 1.98-2.28 4.903-3.42 8.77-3.42v0c3.6 0 6.433 1.14 8.5 3.42 2.067 2.287 3.1 5.763 3.1 10.43v0c0 4.7-0.99 8.2-2.97 10.5-1.987 2.3-4.913 3.45-8.78 3.45zM109.35-2.1v0c1.667 0 3-0.427 4-1.28 1-0.847 1.717-2.12 2.15-3.82 0.433-1.7 0.65-3.783 0.65-6.25v0c0-3.733-0.517-6.533-1.55-8.4-1.033-1.867-2.8-2.8-5.3-2.8v0c-2.5 0-4.257 0.933-5.27 2.8-1.02 1.867-1.53 4.667-1.53 8.4v0c0 3.733 0.517 6.557 1.55 8.47 1.033 1.92 2.8 2.88 5.3 2.88zM137.9 0.5v0c-2.2 0-4.157-0.467-5.87-1.4-1.72-0.933-3.073-2.41-4.06-4.43-0.98-2.013-1.47-4.653-1.47-7.92v0c0-3.567 0.49-6.377 1.47-8.43 0.987-2.047 2.32-3.497 4-4.35 1.687-0.847 3.58-1.27 5.68-1.27v0c1.4 0 2.767 0.183 4.1 0.55 1.333 0.367 2.433 0.923 3.3 1.67 0.867 0.753 1.3 1.713 1.3 2.88v0c0 0.767-0.167 1.383-0.5 1.85-0.333 0.467-0.823 0.8-1.47 1-0.653 0.2-1.48 0.3-2.48 0.3v0c0-1.067-0.123-2.033-0.37-2.9-0.253-0.867-0.68-1.56-1.28-2.08-0.6-0.513-1.467-0.77-2.6-0.77v0c-1.267 0-2.377 0.333-3.33 1-0.947 0.667-1.677 1.833-2.19 3.5-0.52 1.667-0.78 4-0.78 7v0c0 2.367 0.26 4.333 0.78 5.9 0.513 1.567 1.32 2.733 2.42 3.5 1.1 0.767 2.55 1.15 4.35 1.15v0c1.033 0 1.983-0.15 2.85-0.45 0.867-0.3 1.627-0.717 2.28-1.25 0.647-0.533 1.153-1.133 1.52-1.8v0c0.267 0.2 0.477 0.457 0.63 0.77 0.147 0.32 0.22 0.713 0.22 1.18v0c0 0.767-0.317 1.517-0.95 2.25-0.633 0.733-1.573 1.34-2.82 1.82-1.253 0.487-2.83 0.73-4.73 0.73zM158.6 0.5v0c-1.467 0-2.79-0.293-3.97-0.88-1.187-0.58-2.113-1.463-2.78-2.65-0.667-1.18-1-2.67-1-4.47v0c0-2.667 0.94-4.633 2.82-5.9 1.887-1.267 4.747-1.967 8.58-2.1v0l4.15-0.15v-3c0-1.2-0.1-2.26-0.3-3.18-0.2-0.913-0.633-1.637-1.3-2.17-0.667-0.533-1.683-0.8-3.05-0.8v0c-1.267 0-2.233 0.233-2.9 0.7-0.667 0.467-1.107 1.107-1.32 1.92-0.22 0.82-0.33 1.763-0.33 2.83v0c-1.4 0-2.457-0.243-3.17-0.73-0.72-0.48-1.08-1.287-1.08-2.42v0c0-1.167 0.407-2.1 1.22-2.8 0.82-0.7 1.913-1.21 3.28-1.53 1.367-0.313 2.867-0.47 4.5-0.47v0c3.067 0 5.357 0.65 6.87 1.95 1.52 1.3 2.28 3.533 2.28 6.7v0 12.95c0 0.933 0.1 1.657 0.3 2.17 0.2 0.52 0.533 0.887 1 1.1 0.467 0.22 1.067 0.33 1.8 0.33v0h0.15v2.1h-6.75l-0.8-4.3h-0.4c-0.7 0.933-1.383 1.757-2.05 2.47-0.667 0.72-1.44 1.287-2.32 1.7-0.887 0.42-2.03 0.63-3.43 0.63zM159.75-2.6v0c1.367 0 2.543-0.283 3.53-0.85 0.98-0.567 1.743-1.377 2.29-2.43 0.553-1.047 0.83-2.27 0.83-3.67v0-4.05l-3.2 0.15c-1.9 0.067-3.393 0.35-4.48 0.85-1.08 0.5-1.853 1.19-2.32 2.07-0.467 0.887-0.7 1.98-0.7 3.28v0c0 1.033 0.15 1.893 0.45 2.58 0.3 0.68 0.75 1.193 1.35 1.54 0.6 0.353 1.35 0.53 2.25 0.53zM188.5 0.5v0c-2.533 0-4.377-0.577-5.53-1.73-1.147-1.147-1.72-3.153-1.72-6.02v0-16.7h-3.8v-2c0.6 0 1.267-0.127 2-0.38 0.733-0.247 1.367-0.653 1.9-1.22v0c0.567-0.6 1.033-1.333 1.4-2.2 0.367-0.867 0.667-1.933 0.9-3.2v0h2.3v6.15h6.55v2.85h-6.55v16.85c0 1.7 0.35 2.95 1.05 3.75 0.7 0.8 1.617 1.2 2.75 1.2v0c0.6 0 1.15-0.033 1.65-0.1 0.5-0.067 1.017-0.15 1.55-0.25v0 2.2c-0.433 0.2-1.083 0.383-1.95 0.55-0.867 0.167-1.7 0.25-2.5 0.25zM208.45 0.5v0c-3.633 0-6.477-1.2-8.53-3.6-2.047-2.4-3.07-5.767-3.07-10.1v0c0-4.667 0.967-8.183 2.9-10.55 1.933-2.367 4.667-3.55 8.2-3.55v0c3.233 0 5.773 1 7.62 3 1.853 2 2.78 4.983 2.78 8.95v0 2.3h-16.65c0.067 3.633 0.723 6.273 1.97 7.92 1.253 1.653 3.08 2.48 5.48 2.48v0c1.733 0 3.207-0.36 4.42-1.08 1.22-0.713 2.13-1.52 2.73-2.42v0c0.233 0.1 0.45 0.3 0.65 0.6 0.2 0.3 0.3 0.667 0.3 1.1v0c0 0.667-0.317 1.383-0.95 2.15-0.633 0.767-1.6 1.423-2.9 1.97-1.3 0.553-2.95 0.83-4.95 0.83zM201.8-15.75h11.5c0-2.667-0.41-4.81-1.23-6.43-0.813-1.613-2.22-2.42-4.22-2.42v0c-1.833 0-3.26 0.757-4.28 2.27-1.013 1.52-1.603 3.713-1.77 6.58z"
                                                                    fill-rule="nonzero"
                                                                    stroke="none" strokeWidth="1"
                                                                    stroke-linecap="butt"
                                                                    stroke-linejoin="miter"
                                                                    stroke-miterlimit="10"
                                                                    stroke-dasharray=""
                                                                    stroke-dashoffset="0"
                                                                    font-family="none"
                                                                    font-weight="none"
                                                                    font-size="none"
                                                                    text-anchor="none"
                                                                    style="mix-blend-mode: normal"
                                                                    data-fill-palette-color="primary"
                                                                    opacity="1" />
                                                            </g>
                                                        </svg>
                                                    </g>
                                                </svg>
                                            </g>
                                        </svg>
                                    </g>
                                </svg>
                            </g>
                            <g transform="matrix(1,0,0,1,0,6.499999999999986)">
                                <svg viewBox="0 0 180.131221719457 188" height="188"
                                    width="180.131221719457">
                                    <g>
                                        <svg xmlns="http://www.w3.org/2000/svg"
                                            xmlns:xlink="http://www.w3.org/1999/xlink" version="1.1"
                                            x="0" y="0" viewBox="3.9 1.8 84.69999999999999 88.4"
                                            style="enable-background:new 0 0 91 91;"
                                            xml:space="preserve" height="188"
                                            width="180.131221719457"
                                            data-fill-palette-color="accent"><g  data-fill-palette-color="accent"><path d="M77.6 19.9V14.2H52C52.6 13.2 52.9 12.1 52.9 10.8 52.9 7.6 50.7 5 47.7 4.2V1.8H44.5V4.2C41.5 4.9 39.3 7.6 39.3 10.8 39.3 12 39.7 13.2 40.2 14.2H14.8V19.9H17.2L4 52.1C3.9 52.3 3.9 52.5 3.9 52.7 3.9 55.4 6.1 57.7 8.9 57.7H29C31.7 57.7 34 55.5 34 52.7 34 52.5 34 52.3 33.9 52.1L20.4 19.7C20.4 19.4 20.3 19.2 20.1 19 19.6 18.3 18.6 18.2 17.9 18.6V17.4H41.2V78.7C39.5 79.5 38 80.7 36.9 82.2H15.1C11.6 82.2 8.7 85 8.7 88.6V90.2H83.5V88.6C83.5 85.1 80.7 82.2 77.2 82.2H55.4C54.3 80.6 52.8 79.5 51.1 78.7V17.3H74.5V18.6C73.8 18.1 72.6 18.2 72.1 18.9 71.9 19.1 71.8 19.4 71.8 19.7L58.6 52.1C58.5 52.3 58.5 52.5 58.5 52.7 58.5 55.4 60.7 57.7 63.5 57.7H83.6C86.3 57.7 88.6 55.5 88.6 52.7 88.6 52.5 88.6 52.3 88.5 52.1L75.1 19.9zM28.9 54.4H8.8C7.9 54.4 7.2 53.7 7 52.9L7.3 52.2H30.3L30.6 52.9C30.5 53.8 29.8 54.4 28.9 54.4M18.8 24.2L29 49H8.6zM42.6 10.8C42.6 9.4 43.4 8.2 44.6 7.6V10.7H47.8V7.6C49 8.2 49.8 9.4 49.8 10.8 49.8 12.4 48.8 13.7 47.4 14.2H45C43.6 13.7 42.6 12.4 42.6 10.8M53.1 84.5L53.6 85.3H77.2C78.4 85.3 79.4 85.9 79.9 86.9H12.3C12.9 86 13.9 85.3 15 85.3H38.6L39.1 84.5C40.4 82.2 42.8 80.8 45.4 80.8H46.7C49.4 80.8 51.8 82.3 53.1 84.5M45.5 77.7H44.4V17.6H47.8V77.7zM73.5 24.2L83.7 49H63.3zM83.5 54.4H63.4C62.5 54.4 61.8 53.7 61.6 52.9L61.9 52.2H84.9L85.2 52.9C85.1 53.8 84.4 54.4 83.5 54.4"  data-fill-palette-color="accent"/></g></svg>
                                    </g>
                                </svg>
                            </g>
                        </svg>
                    </g>
                    <defs></defs>
                </svg>
                <rect width="395.52" height="140.53968526177098" fill="none" stroke="none"
                    visibility="hidden"></rect>
            </g>
        </svg>
    </g>
</svg>